<svg width="35" height="35" viewBox="0 0 35 35" fill="none" xmlns="http://www.w3.org/2000/svg">
<g clip-path="url(#clip0_3550_2888)">
<path d="M17.4994 0C7.83487 0 0 7.83545 0 17.4996C0 27.1638 7.83487 35 17.4994 35C27.164 35 34.9998 27.1643 34.9998 17.4996C34.9998 7.83498 27.164 0 17.4994 0ZM25.8184 12.5936L24.1563 14.2557L20.7728 10.8725L19.4893 12.1561L22.8727 15.5395L14.574 23.8376L11.1908 20.4547L9.90722 21.7383L13.2904 25.1215L12.4635 25.9484L12.4477 25.9327C12.356 26.0836 12.2069 26.1938 12.0298 26.2331L8.87483 26.9366C8.82758 26.9472 8.77952 26.9523 8.73203 26.9523C8.55983 26.9523 8.39253 26.8846 8.26852 26.7602C8.10938 26.6016 8.04312 26.3726 8.09212 26.1532L8.79527 22.9991C8.83493 22.8221 8.9453 22.6726 9.09603 22.5812L9.08005 22.5652L22.4349 9.20978C22.6306 9.01437 22.9487 9.01437 23.1444 9.21037L25.8187 11.884C26.0144 12.0798 26.0144 12.3978 25.8184 12.5936Z" fill="#2C3A64"/>
</g>
<defs>
<clipPath id="clip0_3550_2888">
<rect width="35" height="35" fill="white"/>
</clipPath>
</defs>
</svg>
