<svg width="35" height="35" viewBox="0 0 35 35" fill="none" xmlns="http://www.w3.org/2000/svg">
<g clip-path="url(#clip0_3550_2896)">
<path d="M17.5 0C7.83495 0 0 7.83495 0 17.5C0 27.1651 7.83495 35 17.5 35C27.1651 35 35 27.1651 35 17.5C35 7.83495 27.1651 0 17.5 0ZM25.06 22.7226C24.4281 23.636 23.6363 24.4277 22.7229 25.0596C19.1443 27.5353 14.1869 27.1809 11.003 23.9966C7.81907 20.8124 7.46474 15.8554 9.94 12.2771C10.5717 11.3635 11.3635 10.5717 12.2771 9.94C15.8554 7.4651 20.8135 7.81943 23.997 11.0026C27.1806 14.1858 27.5349 19.1446 25.06 22.7226ZM12.3402 14.6758L20.3242 22.6598C18.0914 23.8823 15.2268 23.5481 13.3401 21.6599C11.4533 19.7718 11.1174 16.9086 12.3402 14.6758ZM21.6614 13.3408C23.5481 15.2268 23.8819 18.0914 22.6598 20.3238L14.6758 12.3402C16.9082 11.1177 19.7732 11.4515 21.6599 13.3401L21.6614 13.3408Z" fill="#2C3A64"/>
</g>
<defs>
<clipPath id="clip0_3550_2896">
<rect width="35" height="35" fill="white"/>
</clipPath>
</defs>
</svg>
