<svg width="35" height="35" viewBox="0 0 35 35" fill="none" xmlns="http://www.w3.org/2000/svg">
<g clip-path="url(#clip0_3550_2892)">
<path d="M17.5 15.75C18.4665 15.75 19.25 16.5335 19.25 17.5C19.25 18.4665 18.4665 19.25 17.5 19.25C16.5335 19.25 15.75 18.4665 15.75 17.5C15.75 16.5335 16.5335 15.75 17.5 15.75Z" fill="#2C3A64"/>
<path d="M17.4999 22.75C12.8169 22.75 10.3556 18.7127 9.72119 17.5C10.3538 16.268 12.7784 12.25 17.4999 12.25C22.1829 12.25 24.6434 16.2873 25.2787 17.5C24.6443 18.7372 22.2197 22.75 17.4999 22.75ZM17.4999 14C16.8077 14 16.131 14.2053 15.5554 14.5899C14.9799 14.9744 14.5313 15.5211 14.2664 16.1606C14.0015 16.8001 13.9321 17.5039 14.0672 18.1828C14.2022 18.8617 14.5356 19.4854 15.0251 19.9749C15.5146 20.4644 16.1382 20.7977 16.8171 20.9327C17.4961 21.0678 18.1998 20.9985 18.8393 20.7336C19.4789 20.4687 20.0255 20.0201 20.4101 19.4445C20.7947 18.8689 20.9999 18.1922 20.9999 17.5C20.9999 16.5717 20.6312 15.6815 19.9748 15.0251C19.3184 14.3687 18.4282 14 17.4999 14Z" fill="#2C3A64"/>
<path d="M17.5 35C14.0388 35 10.6554 33.9736 7.77753 32.0507C4.89967 30.1278 2.65665 27.3947 1.33212 24.197C0.00758239 20.9993 -0.338976 17.4806 0.336265 14.0859C1.01151 10.6913 2.67822 7.57306 5.12564 5.12564C7.57306 2.67822 10.6913 1.01151 14.0859 0.336266C17.4806 -0.338974 20.9993 0.00758362 24.197 1.33212C27.3947 2.65665 30.1278 4.89967 32.0507 7.77753C33.9736 10.6554 35 14.0388 35 17.5C34.9946 22.1396 33.1491 26.5877 29.8684 29.8684C26.5877 33.1491 22.1396 34.9946 17.5 35ZM28.1157 17.117C27.9864 16.8195 24.8617 9.72223 17.5 9.72223C10.1383 9.72223 7.01362 16.8195 6.88431 17.117C6.83243 17.238 6.80567 17.3683 6.80567 17.5C6.80567 17.6317 6.83243 17.762 6.88431 17.8831C7.01362 18.1806 10.1383 25.2778 17.5 25.2778C24.8617 25.2778 27.9864 18.1806 28.1157 17.8831C28.1676 17.762 28.1943 17.6317 28.1943 17.5C28.1943 17.3683 28.1676 17.238 28.1157 17.117Z" fill="#2C3A64"/>
</g>
<defs>
<clipPath id="clip0_3550_2892">
<rect width="35" height="35" fill="white" transform="matrix(1 0 0 -1 0 35)"/>
</clipPath>
</defs>
</svg>
