<svg width="36" height="36" viewBox="0 0 36 36" fill="none" xmlns="http://www.w3.org/2000/svg">
<rect x="0.5" y="0.5" width="35" height="35" rx="17.5" stroke="white"/>
<g clip-path="url(#clip0_3442_6570)">
<path d="M27.7034 16.6001L25.2313 15.9935C25.0951 15.5601 24.9218 15.1392 24.7113 14.7306L25.9742 12.6258C26.1228 12.3782 26.0856 12.0686 25.8875 11.8705L24.1294 10.1124C23.9313 9.91433 23.6218 9.87719 23.3741 10.0258L21.2694 11.2886C20.8608 11.0782 20.4398 10.9048 20.0065 10.7686L19.4122 8.29653C19.3379 8.02415 19.0903 7.82605 18.8055 7.82605H16.3293C16.0445 7.82605 15.7969 8.02415 15.7226 8.29653L15.1283 10.7686C14.695 10.9048 14.274 11.0782 13.8655 11.2886L11.7607 10.0258C11.513 9.87719 11.2035 9.91433 11.0054 10.1124L9.2473 11.8705C9.0492 12.0686 9.01205 12.3782 9.16063 12.6258L10.4235 14.7306C10.213 15.1392 10.0397 15.5601 9.90349 15.9935L7.51394 16.6001C7.24155 16.662 7.04346 16.9097 7.04346 17.1944V19.6706C7.04346 19.9554 7.24155 20.203 7.51394 20.2649L9.90349 20.8716C10.0397 21.305 10.213 21.7259 10.4235 22.1345L9.16063 24.2393C9.01205 24.4869 9.0492 24.7964 9.2473 24.9945L11.0054 26.7526C11.2035 26.9507 11.513 26.9879 11.7607 26.8393L13.8655 25.5764C14.274 25.7869 14.695 25.9603 15.1283 26.0964L15.7226 28.486C15.7969 28.7584 16.0445 28.9565 16.3293 28.9565H18.8055C19.0903 28.9565 19.3379 28.7584 19.4122 28.486L20.0065 26.0964C20.4398 25.9603 20.8608 25.7869 21.2694 25.5764L23.3741 26.8393C23.6218 26.9879 23.9313 26.9507 24.1294 26.7526L25.8875 24.9945C26.0856 24.7964 26.1228 24.4869 25.9742 24.2393L24.7113 22.1345C24.9218 21.7259 25.0951 21.305 25.2313 20.8716L27.7034 20.2649C27.9758 20.203 28.1739 19.9554 28.1739 19.6706V17.1944C28.1739 16.9097 27.9758 16.662 27.7034 16.6001ZM17.5674 21.5278C15.8588 21.5278 14.4721 20.1411 14.4721 18.4325C14.4721 16.7239 15.8588 15.3373 17.5674 15.3373C19.276 15.3373 20.6627 16.7239 20.6627 18.4325C20.6627 20.1411 19.276 21.5278 17.5674 21.5278Z" fill="white"/>
</g>
<defs>
<clipPath id="clip0_3442_6570">
<rect width="21.1304" height="21.1304" fill="white" transform="translate(7.04346 7.82605)"/>
</clipPath>
</defs>
</svg>
