<svg width="181" height="58" viewBox="0 0 181 58" fill="none" xmlns="http://www.w3.org/2000/svg">
<path d="M70.9667 34.3687C70.9667 37.8584 73.2589 40.1164 76.2696 40.1164C79.2802 40.1164 81.5382 37.7899 81.5382 34.3687V19.7943H86.1569V43.7429H81.5725V42.0322C79.9645 43.4007 77.9117 44.2218 75.688 44.2218C70.3509 44.2218 66.348 40.4243 66.348 34.6766V19.7943H70.9667V34.3687Z" fill="#2C3A64"/>
<path d="M97.7832 43.7429L87.6906 19.7943H92.7882L100.212 38.2689L107.636 19.7943H112.529L102.436 43.7429H97.7832Z" fill="#2C3A64"/>
<path d="M114.062 43.7429V19.7943H129.15V23.8314H118.681V29.7501H128.807V33.6845H118.681V39.7058H129.15V43.7429H114.062Z" fill="#2C3A64"/>
<path d="M145.302 19.7943L155.394 43.7429H150.468L148.107 37.8926H137.706L135.346 43.7429H130.556L140.649 19.7943H145.302ZM139.28 33.8897H146.499L142.907 24.9261L139.28 33.8897Z" fill="#2C3A64"/>
<path d="M170.46 19.7943L180.552 43.7429H175.626L173.265 37.8926H162.864L160.504 43.7429H155.714L165.807 19.7943H170.46ZM164.438 33.8897H171.657L168.065 24.9261L164.438 33.8897Z" fill="#2C3A64"/>
<ellipse cx="28.7883" cy="29" rx="28.7883" ry="29" fill="#2C3A64"/>
<ellipse cx="28.7883" cy="29" rx="25.3319" ry="25.5182" fill="#C0D8FB"/>
<ellipse cx="28.7883" cy="29" rx="21.7845" ry="21.9447" fill="white"/>
<ellipse cx="28.7883" cy="29" rx="17.4185" ry="17.5466" fill="#0043E5"/>
<path fill-rule="evenodd" clip-rule="evenodd" d="M14.1204 38.4676C15.298 31.3534 21.4372 25.9305 28.8338 25.9305C36.191 25.9305 42.3042 31.2958 43.5279 38.3542C40.4428 43.2769 34.9946 46.5466 28.7883 46.5466C22.6298 46.5466 17.2178 43.327 14.1204 38.4676Z" fill="#2C3A64"/>
<ellipse cx="28.7883" cy="29" rx="13.6892" ry="13.7899" fill="#C0D8FB"/>
<path fill-rule="evenodd" clip-rule="evenodd" d="M15.8385 33.4823C18.3989 28.9192 23.2593 25.8389 28.8338 25.8389C34.3673 25.8389 39.197 28.8739 41.7721 33.3816C39.9545 38.8496 34.8282 42.7899 28.7883 42.7899C22.7856 42.7899 17.6853 38.8979 15.8385 33.4823Z" fill="#AEC3FF"/>
<ellipse cx="28.7883" cy="29" rx="9.41419" ry="9.48341" fill="#0043E5"/>
<path fill-rule="evenodd" clip-rule="evenodd" d="M19.3754 29.1536C21.9495 27.0249 25.2435 25.7473 28.8338 25.7473C32.3824 25.7473 35.6415 26.9954 38.2022 29.0797C38.1597 34.2805 33.9613 38.4834 28.7883 38.4834C23.6399 38.4834 19.4568 34.3203 19.3754 29.1536Z" fill="#2A375F"/>
<ellipse cx="28.7883" cy="29" rx="6.32161" ry="6.36809" fill="#2C3A64"/>
<ellipse cx="28.7883" cy="29" rx="3.5019" ry="3.52765" fill="#242F51"/>
<path d="M5.75463 26.8616C5.60909 24.5526 7.08868 23.8837 7.84667 23.8379L27.3118 36.0243L54.0535 14.8585L55.3269 17.6989C49.1418 22.5093 37.8629 32.4051 35.407 36.0243C32.5328 38.9198 31.2381 44.2861 30.9501 46.6073H28.8126L7.39187 29.0149C6.52777 28.74 5.83548 28.1444 5.75463 26.8616Z" fill="black" fill-opacity="0.15"/>
<path d="M51.6886 5.55828C53.1803 5.37502 54.766 5.48192 55.3724 5.55828C55.3724 6.93269 55.3269 12.4761 55.3269 14.4003C55.236 15.0875 55.0395 15.53 54.4174 16.0954C50.2333 19.8979 41.6832 27.2739 38.5451 30.1602L31.6323 39.552L28.3123 43.5377C27.6301 42.8505 23.3915 39.3779 20.8082 36.4825C18.225 33.587 10.2874 28.4498 7.07352 26.2202C6.04266 26.1439 7.25544 23.1782 7.07353 21.4556C6.89161 19.733 8.21051 18.5388 8.89269 18.157C9.681 17.5614 12.2672 17.03 16.3058 19.6689C20.3444 22.3077 25.2046 27.1517 27.1298 29.2439L30.9501 24.3877L36.8624 17.7905L42.9111 12.0638C45.458 9.63568 50.2333 5.42084 51.6886 5.55828Z" fill="#242F51"/>
<path d="M51.6886 5.55828C53.1803 5.37502 54.766 5.48192 55.3724 5.55828V10.781C52.7346 12.7052 47.0952 17.1949 45.4579 18.9817C41.3648 22.5093 36.6047 27.7779 33.8153 31.1222L28.5397 38.1775V39.8268C27.8575 39.1396 25.8473 37.0414 23.2641 34.1459C20.6809 31.2505 13.6074 26.0675 10.3935 23.8379C9.36263 23.7615 7.25542 23.1782 7.07351 21.4556C6.89159 19.733 8.21048 18.5388 8.89267 18.157C9.68098 17.5614 12.2672 17.03 16.3058 19.6689C20.3443 22.3077 25.2045 27.1517 27.1298 29.2439L30.9501 24.3877L36.8624 17.7905L42.9111 12.0638C45.4579 9.63568 50.2333 5.42084 51.6886 5.55828Z" fill="#0043E5"/>
<path d="M51.5067 5.46666C52.3071 5.3567 54.4477 5.42084 55.4179 5.46666L45.9128 13.4382C43.9572 15.1791 40.7736 18.1112 38.2723 20.7684C36.6821 22.5551 30.9501 29.2897 28.4943 32.0843V34.8332L24.2192 30.5267L19.9442 26.2202C17.9886 24.3419 14.805 22.2192 14.4412 21.9137C14.1683 21.6847 14.2593 21.4556 14.3502 21.364C14.9415 20.7684 15.3584 20.3561 15.942 19.8521C16.2604 19.5772 16.4878 19.6017 16.8061 19.8521C20.1261 22.4635 24.583 26.2202 27.1754 29.2897C29.0855 26.0828 36.2257 18.1112 39.3183 15.4998L42.229 12.6594C42.9415 12.0027 44.5939 10.4603 46.504 8.85686C48.7325 6.79525 50.5062 5.6041 51.5067 5.46666Z" fill="white"/>
</svg>
