<svg width="33" height="33" viewBox="0 0 33 33" fill="none" xmlns="http://www.w3.org/2000/svg">
<path d="M2.23998 5.41394C2.42103 4.64185 2.81407 3.93565 3.37483 3.37488C3.93558 2.81412 4.64178 2.42108 5.41387 2.24002C6.77829 1.91999 8.19827 1.91999 9.56269 2.24002C10.3348 2.42108 11.041 2.81412 11.6017 3.37488C12.1625 3.93565 12.5555 4.64185 12.7366 5.41394C13.0561 6.77887 13.0561 8.19951 12.7366 9.56281C12.5555 10.3349 12.1625 11.0411 11.6017 11.6019C11.041 12.1626 10.3348 12.5557 9.56269 12.7367C8.19778 13.0562 6.77715 13.0562 5.41387 12.7367C4.64178 12.5557 3.93558 12.1626 3.37483 11.6019C2.81407 11.0411 2.42103 10.3349 2.23998 9.56281C1.92001 8.19836 1.92001 6.77839 2.23998 5.41394Z" stroke="#FFB56D" stroke-width="4"/>
<path d="M2.23998 23.4378C2.42103 22.6657 2.81407 21.9595 3.37483 21.3987C3.93558 20.838 4.64178 20.4449 5.41387 20.2639C6.77831 19.9439 8.19825 19.9439 9.56269 20.2639C10.3348 20.4449 11.041 20.838 11.6017 21.3987C12.1625 21.9595 12.5555 22.6657 12.7366 23.4378C13.0561 24.8027 13.0561 26.2234 12.7366 27.5866C12.5555 28.3587 12.1625 29.0649 11.6017 29.6257C11.041 30.1865 10.3348 30.5795 9.56269 30.7606C8.19778 31.0801 6.77715 31.0801 5.41387 30.7606C4.64178 30.5795 3.93558 30.1865 3.37483 29.6257C2.81407 29.0649 2.42103 28.3587 2.23998 27.5866C1.92001 26.2222 1.92001 24.8022 2.23998 23.4378Z" stroke="#FFB56D" stroke-width="4"/>
<path d="M20.259 5.41394C20.44 4.64185 20.8331 3.93565 21.3938 3.37488C21.9546 2.81412 22.6608 2.42108 23.4329 2.24002C24.7973 1.91999 26.2173 1.91999 27.5817 2.24002C28.3538 2.42108 29.06 2.81412 29.6207 3.37488C30.1815 3.93565 30.5745 4.64185 30.7556 5.41394C31.0751 6.77887 31.0751 8.19951 30.7556 9.56281C30.5745 10.3349 30.1815 11.0411 29.6207 11.6019C29.06 12.1626 28.3538 12.5557 27.5817 12.7367C26.2168 13.0562 24.7961 13.0562 23.4329 12.7367C22.6608 12.5557 21.9546 12.1626 21.3938 11.6019C20.8331 11.0411 20.44 10.3349 20.259 9.56281C19.9391 8.19835 19.9391 6.7784 20.259 5.41394Z" stroke="#FFB56D" stroke-width="4"/>
<path d="M20.259 23.4378C20.44 22.6657 20.8331 21.9595 21.3938 21.3987C21.9546 20.838 22.6608 20.4449 23.4329 20.2639C24.7973 19.9439 26.2173 19.9439 27.5817 20.2639C28.3538 20.4449 29.06 20.838 29.6207 21.3987C30.1815 21.9595 30.5745 22.6657 30.7556 23.4378C31.0751 24.8027 31.0751 26.2234 30.7556 27.5866C30.5745 28.3587 30.1815 29.0649 29.6207 29.6257C29.06 30.1865 28.3538 30.5795 27.5817 30.7606C26.2168 31.0801 24.7961 31.0801 23.4329 30.7606C22.6608 30.5795 21.9546 30.1865 21.3938 29.6257C20.8331 29.0649 20.44 28.3587 20.259 27.5866C19.9391 26.2222 19.9391 24.8022 20.259 23.4378Z" stroke="#FFB56D" stroke-width="4"/>
</svg>
