<svg width="31" height="31" viewBox="0 0 31 31" fill="none" xmlns="http://www.w3.org/2000/svg">
<path d="M1.23998 4.41394C1.42103 3.64185 1.81407 2.93565 2.37483 2.37488C2.93558 1.81412 3.64178 1.42108 4.41387 1.24002C5.77829 0.919992 7.19827 0.919992 8.56269 1.24002C9.33478 1.42108 10.041 1.81412 10.6017 2.37488C11.1625 2.93565 11.5555 3.64185 11.7366 4.41394C12.0561 5.77887 12.0561 7.19951 11.7366 8.56281C11.5555 9.3349 11.1625 10.0411 10.6017 10.6019C10.041 11.1626 9.33478 11.5557 8.56269 11.7367C7.19778 12.0562 5.77715 12.0562 4.41387 11.7367C3.64178 11.5557 2.93558 11.1626 2.37483 10.6019C1.81407 10.0411 1.42103 9.3349 1.23998 8.56281C0.920007 7.19836 0.920007 5.77839 1.23998 4.41394Z" stroke="black" stroke-width="1.5"/>
<path d="M1.23998 22.4378C1.42103 21.6657 1.81407 20.9595 2.37483 20.3987C2.93558 19.838 3.64178 19.4449 4.41387 19.2639C5.77831 18.9439 7.19825 18.9439 8.56269 19.2639C9.33478 19.4449 10.041 19.838 10.6017 20.3987C11.1625 20.9595 11.5555 21.6657 11.7366 22.4378C12.0561 23.8027 12.0561 25.2234 11.7366 26.5866C11.5555 27.3587 11.1625 28.0649 10.6017 28.6257C10.041 29.1865 9.33478 29.5795 8.56269 29.7606C7.19778 30.0801 5.77715 30.0801 4.41387 29.7606C3.64178 29.5795 2.93558 29.1865 2.37483 28.6257C1.81407 28.0649 1.42103 27.3587 1.23998 26.5866C0.920007 25.2222 0.920007 23.8022 1.23998 22.4378Z" stroke="black" stroke-width="1.5"/>
<path d="M19.259 4.41394C19.44 3.64185 19.8331 2.93565 20.3938 2.37488C20.9546 1.81412 21.6608 1.42108 22.4329 1.24002C23.7973 0.919992 25.2173 0.919992 26.5817 1.24002C27.3538 1.42108 28.06 1.81412 28.6207 2.37488C29.1815 2.93565 29.5745 3.64185 29.7556 4.41394C30.0751 5.77887 30.0751 7.19951 29.7556 8.56281C29.5745 9.3349 29.1815 10.0411 28.6207 10.6019C28.06 11.1626 27.3538 11.5557 26.5817 11.7367C25.2168 12.0562 23.7961 12.0562 22.4329 11.7367C21.6608 11.5557 20.9546 11.1626 20.3938 10.6019C19.8331 10.0411 19.44 9.3349 19.259 8.56281C18.9391 7.19835 18.9391 5.7784 19.259 4.41394Z" stroke="black" stroke-width="1.5"/>
<path d="M19.259 22.4378C19.44 21.6657 19.8331 20.9595 20.3938 20.3987C20.9546 19.838 21.6608 19.4449 22.4329 19.2639C23.7973 18.9439 25.2173 18.9439 26.5817 19.2639C27.3538 19.4449 28.06 19.838 28.6207 20.3987C29.1815 20.9595 29.5745 21.6657 29.7556 22.4378C30.0751 23.8027 30.0751 25.2234 29.7556 26.5866C29.5745 27.3587 29.1815 28.0649 28.6207 28.6257C28.06 29.1865 27.3538 29.5795 26.5817 29.7606C25.2168 30.0801 23.7961 30.0801 22.4329 29.7606C21.6608 29.5795 20.9546 29.1865 20.3938 28.6257C19.8331 28.0649 19.44 27.3587 19.259 26.5866C18.9391 25.2222 18.9391 23.8022 19.259 22.4378Z" stroke="black" stroke-width="1.5"/>
</svg>
