<svg width="33" height="33" viewBox="0 0 33 33" fill="none" xmlns="http://www.w3.org/2000/svg">
<path d="M10.6191 13.8417L14.5416 16.8013C15.1109 17.2307 15.7932 17.4616 16.4929 17.4616C17.1927 17.4616 17.8749 17.2307 18.4442 16.8013L22.3667 13.8417M2.58343 21.5766C1.79934 18.2428 1.79934 14.7572 2.58343 11.4235C3.08673 9.2839 4.14563 7.335 5.64103 5.79605C7.13643 4.25709 9.00898 3.18914 11.048 2.71234L11.7394 2.54962C14.8719 1.81679 18.1185 1.81679 21.251 2.54962L21.9424 2.71073C23.9816 3.18766 25.8543 4.25585 27.3497 5.79511C28.8452 7.33436 29.9039 9.2836 30.407 11.4235C31.1915 14.7584 31.1915 18.2432 30.407 21.5766C29.9037 23.7161 28.8448 25.665 27.3494 27.204C25.854 28.7429 23.9814 29.8109 21.9424 30.2877L21.251 30.4504C18.1185 31.1832 14.8719 31.1832 11.7394 30.4504L11.048 30.2893C9.00879 29.8124 7.1361 28.7442 5.64069 27.2049C4.14527 25.6657 3.08648 23.7164 2.58343 21.5766Z" stroke="#FFB56D" stroke-width="3" stroke-linecap="round"/>
</svg>
