<svg width="31" height="31" viewBox="0 0 31 31" fill="none" xmlns="http://www.w3.org/2000/svg">
<path d="M9.61597 12.8417L13.5384 15.8013C14.1078 16.2307 14.79 16.4616 15.4897 16.4616C16.1895 16.4616 16.8717 16.2307 17.4411 15.8013L21.3635 12.8417M1.58026 20.5766C0.796164 17.2428 0.796164 13.7572 1.58026 10.4235C2.08355 8.2839 3.14246 6.335 4.63786 4.79605C6.13325 3.25709 8.0058 2.18914 10.0448 1.71234L10.7362 1.54962C13.8688 0.816792 17.1153 0.816792 20.2478 1.54962L20.9392 1.71073C22.9785 2.18766 24.8511 3.25585 26.3466 4.79511C27.842 6.33436 28.9008 8.2836 29.4038 10.4235C30.1883 13.7584 30.1883 17.2432 29.4038 20.5766C28.9005 22.7161 27.8416 24.665 26.3462 26.204C24.8508 27.7429 22.9783 28.8109 20.9392 29.2877L20.2478 29.4504C17.1153 30.1832 13.8688 30.1832 10.7362 29.4504L10.0448 29.2893C8.00561 28.8124 6.13293 27.7442 4.63751 26.2049C3.1421 24.6657 2.0833 22.7164 1.58026 20.5766Z" stroke="black" stroke-width="1.5" stroke-linecap="round"/>
</svg>
