<svg width="31" height="31" viewBox="0 0 31 31" fill="none" xmlns="http://www.w3.org/2000/svg">
<path d="M2.0845 10.4733H15.4926M15.4926 20.5269H28.9006M15.4926 2.09366V28.9098M1.56088 20.4141C0.802625 17.182 0.802625 13.8182 1.56088 10.5861C2.07548 8.39252 3.19225 6.38618 4.78544 4.79299C6.37863 3.19979 8.38497 2.08302 10.5785 1.56842C13.8105 0.811177 17.1746 0.811177 20.4066 1.56842C22.6002 2.08302 24.6065 3.19979 26.1997 4.79299C27.7929 6.38618 28.9097 8.39252 29.4243 10.5861C30.1815 13.8181 30.1815 17.1822 29.4243 20.4141C28.9097 22.6077 27.7929 24.614 26.1997 26.2072C24.6065 27.8004 22.6002 28.9172 20.4066 29.4318C17.1746 30.189 13.8105 30.189 10.5785 29.4318C8.38497 28.9172 6.37863 27.8004 4.78544 26.2072C3.19225 24.614 2.07548 22.6077 1.56088 20.4141Z" stroke="black" stroke-width="1.5"/>
</svg>
