<svg width="33" height="33" viewBox="0 0 33 33" fill="none" xmlns="http://www.w3.org/2000/svg">
<path d="M3.08743 11.4733H16.4955M16.4955 21.5269H29.9036M16.4955 3.09366V29.9098M2.56381 21.4141C1.80555 18.182 1.80555 14.8182 2.56381 11.5861C3.07841 9.39252 4.19518 7.38618 5.78837 5.79299C7.38156 4.19979 9.3879 3.08302 11.5815 2.56842C14.8134 1.81118 18.1775 1.81118 21.4095 2.56842C23.6031 3.08302 25.6094 4.19979 27.2026 5.79299C28.7958 7.38618 29.9126 9.39252 30.4272 11.5861C31.1844 14.8181 31.1844 18.1822 30.4272 21.4141C29.9126 23.6077 28.7958 25.614 27.2026 27.2072C25.6094 28.8004 23.6031 29.9172 21.4095 30.4318C18.1775 31.189 14.8134 31.189 11.5815 30.4318C9.3879 29.9172 7.38156 28.8004 5.78837 27.2072C4.19518 25.614 3.07841 23.6077 2.56381 21.4141Z" stroke="#FFB56D" stroke-width="3"/>
</svg>
