<svg width="36" height="36" viewBox="0 0 36 36" fill="none" xmlns="http://www.w3.org/2000/svg">
<rect x="0.5" y="0.5" width="35" height="35" rx="17.5" stroke="white"/>
<g clip-path="url(#clip0_3442_6510)">
<path d="M18.2277 22.1056C18.5696 22.1056 18.8468 21.8284 18.8468 21.4865V19.0103C18.8468 18.6684 18.5697 18.3912 18.2277 18.3912H16.9896C16.6478 18.3912 16.3705 18.6683 16.3705 19.0103V21.4865C16.3705 21.8284 16.6477 22.1056 16.9896 22.1056H18.2277Z" fill="white"/>
<path d="M26.3167 11.5816H21.9421C21.9421 11.457 21.9421 10.8379 21.9421 10.9626C21.9421 9.93849 21.109 9.10541 20.0849 9.10541C19.9505 9.10541 14.9486 9.10541 15.1325 9.10541C14.1084 9.10541 13.2753 9.93845 13.2753 10.9626C13.2753 11.0873 13.2753 11.7063 13.2753 11.5816H8.90062C7.87654 11.5816 7.04346 12.4147 7.04346 13.4388C7.04346 14.6512 7.19203 15.713 7.48703 16.6178C7.78203 17.5227 8.2235 18.2707 8.80933 18.8555C9.79516 19.84 11.0509 20.2484 12.4608 20.2484H15.1325C15.1325 20.1237 15.1325 18.8856 15.1325 19.0103C15.1325 17.9862 15.9655 17.1531 16.9896 17.1531C17.1143 17.1531 18.3524 17.1531 18.2277 17.1531C19.2518 17.1531 20.0849 17.9862 20.0849 19.0103C20.0849 19.135 20.0849 20.3731 20.0849 20.2484H21.4604C22.6927 20.1972 24.7085 20.5719 26.4074 18.8809C26.9935 18.2975 27.4351 17.5482 27.7302 16.6391C28.0254 15.73 28.1739 14.6612 28.1739 13.4388C28.1739 12.4147 27.3408 11.5816 26.3167 11.5816ZM14.5134 10.9626C14.5134 10.621 14.7909 10.3435 15.1325 10.3435H20.0849C20.4265 10.3435 20.704 10.621 20.704 10.9626C20.704 11.0873 20.704 11.7063 20.704 11.5816H14.5134C14.5134 11.457 14.5134 10.8379 14.5134 10.9626Z" fill="white"/>
<path d="M21.4773 21.4865H20.0849C20.0849 22.5106 19.2519 23.3437 18.2277 23.3437C18.1031 23.3437 16.8649 23.3437 16.9896 23.3437C15.9655 23.3437 15.1325 22.5107 15.1325 21.4865C14.991 21.4865 12.3134 21.4865 12.4662 21.4865C10.7005 21.4865 9.14961 20.9447 7.93453 19.7316C7.59128 19.3889 7.29818 19.0031 7.04346 18.5904V27.058C7.04346 27.4002 7.32034 27.6771 7.66251 27.6771H27.5548C27.897 27.6771 28.1739 27.4002 28.1739 27.058V18.6159C27.9157 19.0348 27.6214 19.4197 27.281 19.7588C25.3276 21.7019 23.2473 21.4029 21.4773 21.4865Z" fill="white"/>
</g>
<defs>
<clipPath id="clip0_3442_6510">
<rect width="21.1304" height="21.1304" fill="white" transform="translate(7.04346 7.82605)"/>
</clipPath>
</defs>
</svg>
