<svg version="1.2" xmlns="http://www.w3.org/2000/svg" viewBox="0 0 256 256" width="36" height="36">
	<title>logout-svg</title>
	<style>
		.s0 { fill: #0043e5 } 
	</style>
	<g id="Layer">
		<g id="Layer">
			<path id="Layer" class="s0" d="m103.2 204.3c-42.1 0-76.2-34.2-76.2-76.3 0-42.1 34.1-76.3 76.3-76.3 26.4 0 49.8 13.5 63.4 33.9h19.6c-15.4-30.2-46.8-50.9-83.1-50.9-51.5 0.1-93.2 41.8-93.2 93.3 0 51.5 41.7 93.2 93.2 93.2 36.2 0 67.6-20.7 83.1-50.9h-19.6c-13.7 20.5-37 34-63.5 34z"/>
			<path id="Layer" class="s0" d="m245.1 125.9l-38.5-37.3c-0.8-0.8-1.5-0.5-1.5 0.7v30.3h-84.9c-4.7 0-8.5 3.8-8.5 8.5 0 4.7 3.8 8.5 8.5 8.5h84.9v30.3c0 1.2 0.7 1.5 1.5 0.7l38.5-37.1c1.2-1.4 1.2-3.4 0-4.6z"/>
		</g>
	</g>
</svg>