<svg width="29" height="29" viewBox="0 0 29 29" fill="none" xmlns="http://www.w3.org/2000/svg">
<path d="M2.71726 18.7633C2.05835 15.96 2.05835 13.0379 2.71726 10.2346L0.547585 9.70588C-0.192945 12.8567 -0.192945 16.1411 0.547585 19.292L2.71874 18.7633H2.71726ZM26.2669 10.2346C26.9259 13.0378 26.9244 15.96 26.2654 18.7633L28.4366 19.2935C29.1774 16.1422 29.1774 12.8572 28.4366 9.70588L26.2654 10.2361L26.2669 10.2346ZM18.7779 26.2316C15.9574 26.8918 13.0267 26.8918 10.2063 26.2316L9.7066 28.4478C12.8548 29.1841 16.1309 29.1841 19.2775 28.4478L18.7779 26.2331V26.2316ZM10.2048 2.76779C13.0252 2.10737 15.956 2.10737 18.7764 2.76779L19.2761 0.553051C16.1268 -0.18435 12.8544 -0.18435 9.70512 0.553051L10.2048 2.76779ZM10.2048 26.2331C6.47812 25.362 3.58423 22.4611 2.71577 18.7648L0.546098 19.295C1.61681 23.8472 5.17096 27.3859 9.7066 28.4478L10.2048 26.2331ZM19.2761 28.4493C23.8087 27.3874 27.3659 23.8472 28.4351 19.2935L26.2639 18.7648C25.3969 22.4611 22.5016 25.362 18.7749 26.2331L19.2761 28.4493ZM18.7764 2.76779C22.5031 3.64035 25.3969 6.54132 26.2654 10.2361L28.4351 9.7074C27.3644 5.15522 23.8102 1.61497 19.2746 0.553051L18.7764 2.76779ZM9.70512 0.553051C5.17245 1.61497 1.61532 5.15522 0.546098 9.7074L2.71726 10.2376C3.58423 6.54132 6.47961 3.64035 10.2048 2.76779L9.70512 0.553051ZM18.702 28.4024C18.702 26.1846 18.7035 24.6379 18.8612 23.4715C19.0128 22.3399 19.2924 21.7354 19.7267 21.3022L18.1652 19.6798C17.2387 20.6038 16.8387 21.7703 16.6513 23.164C16.4684 24.5198 16.4714 26.2498 16.4714 28.4024H18.702ZM26.8677 17.9983C24.7114 17.9983 22.9834 17.9952 21.6301 18.177C20.2471 18.3634 19.0872 18.7587 18.1652 19.6798L19.7267 21.3022C20.1624 20.8659 20.7765 20.5842 21.9216 20.4296C23.0964 20.2721 24.6489 20.2706 26.8677 20.2706V17.9983Z" fill="black"/>
<path d="M10.0239 10.2244H14.4852M10.0239 14.769H17.4594" stroke="black" stroke-width="1.5" stroke-linecap="round"/>
</svg>
