<svg width="29" height="29" viewBox="0 0 29 29" fill="none" xmlns="http://www.w3.org/2000/svg">
<path d="M2.72043 18.7633C2.06152 15.96 2.06152 13.0379 2.72043 10.2346L0.550758 9.70588C-0.189771 12.8567 -0.189771 16.1411 0.550758 19.292L2.72192 18.7633H2.72043ZM26.2701 10.2346C26.9291 13.0378 26.9276 15.96 26.2686 18.7633L28.4397 19.2935C29.1806 16.1422 29.1806 12.8572 28.4397 9.70588L26.2686 10.2361L26.2701 10.2346ZM18.7811 26.2316C15.9606 26.8918 13.0299 26.8918 10.2094 26.2316L9.70978 28.4478C12.858 29.1841 16.134 29.1841 19.2807 28.4478L18.7811 26.2331V26.2316ZM10.208 2.76779C13.0284 2.10737 15.9591 2.10737 18.7796 2.76779L19.2792 0.553051C16.13 -0.18435 12.8575 -0.18435 9.70829 0.553051L10.208 2.76779ZM10.208 26.2331C6.48129 25.362 3.58741 22.4611 2.71894 18.7648L0.549272 19.295C1.61998 23.8472 5.17414 27.3859 9.70978 28.4478L10.208 26.2331ZM19.2792 28.4493C23.8119 27.3874 27.369 23.8472 28.4383 19.2935L26.2671 18.7648C25.4001 22.4611 22.5047 25.362 18.7781 26.2331L19.2792 28.4493ZM18.7796 2.76779C22.5062 3.64035 25.4001 6.54132 26.2686 10.2361L28.4383 9.7074C27.3675 5.15522 23.8134 1.61497 19.2777 0.553051L18.7796 2.76779ZM9.70829 0.553051C5.17562 1.61497 1.61849 5.15522 0.549272 9.7074L2.72043 10.2376C3.58741 6.54132 6.48278 3.64035 10.208 2.76779L9.70829 0.553051ZM18.7052 28.4024C18.7052 26.1846 18.7067 24.6379 18.8643 23.4715C19.016 22.3399 19.2956 21.7354 19.7298 21.3022L18.1684 19.6798C17.2419 20.6038 16.8419 21.7703 16.6545 23.164C16.4716 24.5198 16.4746 26.2498 16.4746 28.4024H18.7052ZM26.8709 17.9983C24.7146 17.9983 22.9866 17.9952 21.6333 18.177C20.2503 18.3634 19.0904 18.7587 18.1684 19.6798L19.7298 21.3022C20.1655 20.8659 20.7797 20.5842 21.9248 20.4296C23.0996 20.2721 24.6521 20.2706 26.8709 20.2706V17.9983Z" fill="#FFB56D"/>
<path d="M10.0271 10.2244H14.4884M10.0271 14.769H17.4626" stroke="#FFB56D" stroke-width="3" stroke-linecap="round"/>
</svg>
