<svg width="36" height="36" viewBox="0 0 36 36" fill="none" xmlns="http://www.w3.org/2000/svg">
<rect x="0.5" y="0.5" width="35" height="35" rx="17.5" stroke="white"/>
<g clip-path="url(#clip0_3442_6519)">
<path d="M25.1236 19.1061H23.4895C23.6561 19.5621 23.7471 20.0543 23.7471 20.5672V26.7433C23.7471 26.9572 23.7098 27.1625 23.6421 27.3534H26.3437C27.3529 27.3534 28.1739 26.5324 28.1739 25.5232V22.1563C28.1739 20.4744 26.8056 19.1061 25.1236 19.1061Z" fill="white"/>
<path d="M11.4703 20.5673C11.4703 20.0543 11.5613 19.5622 11.7279 19.1061H10.0938C8.41182 19.1061 7.04346 20.4745 7.04346 22.1564V25.5233C7.04346 26.5325 7.86445 27.3535 8.87364 27.3535H11.5753C11.5076 27.1625 11.4703 26.9573 11.4703 26.7434V20.5673Z" fill="white"/>
<path d="M19.4766 17.517H15.7407C14.0588 17.517 12.6904 18.8853 12.6904 20.5673V26.7434C12.6904 27.0803 12.9636 27.3535 13.3005 27.3535H21.9169C22.2538 27.3535 22.5269 27.0803 22.5269 26.7434V20.5673C22.5269 18.8853 21.1586 17.517 19.4766 17.517Z" fill="white"/>
<path d="M17.6087 9.42902C15.5859 9.42902 13.9403 11.0746 13.9403 13.0974C13.9403 14.4695 14.6976 15.6677 15.8159 16.2969C16.3464 16.5953 16.9579 16.7658 17.6087 16.7658C18.2594 16.7658 18.871 16.5953 19.4014 16.2969C20.5198 15.6677 21.277 14.4694 21.277 13.0974C21.277 11.0747 19.6314 9.42902 17.6087 9.42902Z" fill="white"/>
<path d="M11.1671 12.8482C9.65433 12.8482 8.42365 14.0789 8.42365 15.5917C8.42365 17.1044 9.65433 18.3351 11.1671 18.3351C11.5508 18.3351 11.9162 18.2556 12.2482 18.1127C12.8221 17.8657 13.2953 17.4283 13.5881 16.8804C13.7936 16.4959 13.9106 16.0572 13.9106 15.5917C13.9106 14.0789 12.6799 12.8482 11.1671 12.8482Z" fill="white"/>
<path d="M24.0503 12.8482C22.5375 12.8482 21.3068 14.0789 21.3068 15.5917C21.3068 16.0573 21.4237 16.4959 21.6293 16.8804C21.9221 17.4283 22.3953 17.8657 22.9692 18.1127C23.3011 18.2556 23.6665 18.3351 24.0503 18.3351C25.563 18.3351 26.7937 17.1044 26.7937 15.5917C26.7937 14.0789 25.563 12.8482 24.0503 12.8482Z" fill="white"/>
</g>
<defs>
<clipPath id="clip0_3442_6519">
<rect width="21.1304" height="21.1304" fill="white" transform="translate(7.04346 7.82605)"/>
</clipPath>
</defs>
</svg>
