<?xml version="1.0" standalone="no"?>
<!DOCTYPE svg PUBLIC "-//W3C//DTD SVG 20010904//EN"
 "http://www.w3.org/TR/2001/REC-SVG-20010904/DTD/svg10.dtd">
<svg version="1.0" xmlns="http://www.w3.org/2000/svg"
 width="69.000000pt" height="69.000000pt" viewBox="0 0 69.000000 69.000000"
 preserveAspectRatio="xMidYMid meet">

<g transform="translate(0.000000,69.000000) scale(0.100000,-0.100000)"
fill="#1D3F77" stroke="none">
<path d="M290 559 c-24 -5 -69 -21 -99 -36 -62 -32 -191 -151 -191 -178 0 -27
118 -136 187 -173 111 -59 201 -60 312 -4 62 31 191 150 191 177 0 32 -123
140 -202 178 -82 40 -132 49 -198 36z m102 -59 c46 -13 103 -76 112 -123 10
-56 -9 -110 -53 -150 -69 -62 -161 -58 -224 12 -60 67 -58 157 6 219 49 47 95
59 159 42z"/>
<path d="M269 421 c-42 -42 -42 -110 0 -152 42 -42 110 -42 152 0 24 24 29 38
29 76 0 38 -5 52 -29 76 -24 24 -38 29 -76 29 -38 0 -52 -5 -76 -29z m71 -23
c0 -19 -32 -48 -52 -48 -25 0 -23 16 7 46 24 24 45 25 45 2z"/>
</g>
</svg>
