<svg width="23" height="23" viewBox="0 0 23 23" fill="none" xmlns="http://www.w3.org/2000/svg">
<path d="M11.5 7.79856C9.45782 7.79856 7.79855 9.45783 7.79855 11.5C7.79855 13.5422 9.45782 15.2014 11.5 15.2014C13.5422 15.2014 15.2014 13.5422 15.2014 11.5C15.2014 9.45783 13.5422 7.79856 11.5 7.79856ZM11.2192 10.4023C10.7597 10.4023 10.3768 10.7852 10.3768 11.2447H9.15149C9.17702 10.096 10.096 9.17703 11.2192 9.17703V10.4023Z" fill="#1D3F77"/>
<path fill-rule="evenodd" clip-rule="evenodd" d="M18.2985 16.47C20.4747 14.9382 22.0631 13.0984 22.732 12.2658C23.0893 11.8319 23.0893 11.1937 22.732 10.7342C21.4811 9.17703 17.0139 4.09711 11.5 4.09711C9.89502 4.09711 8.37872 4.52752 7.00461 5.17618L8.73477 6.90634C9.54208 6.41941 10.4883 6.13929 11.5 6.13929C14.4612 6.13929 16.8607 8.53885 16.8607 11.5C16.8607 12.5117 16.5806 13.4579 16.0937 14.2652L18.2985 16.47ZM7.24215 8.24215C6.55035 9.14502 6.13929 10.2744 6.13929 11.5C6.13929 14.4612 8.53885 16.8607 11.5 16.8607C12.7256 16.8607 13.855 16.4497 14.7579 15.7579L16.5477 17.5477C15.0319 18.3475 13.3231 18.9029 11.5 18.9029C5.98613 18.9029 1.51887 13.823 0.268036 12.2658C-0.0893452 11.8063 -0.0893452 11.1681 0.268036 10.7342C0.986423 9.83986 2.76576 7.78356 5.19498 6.19498L7.24215 8.24215Z" fill="#1D3F77"/>
<line x1="1.70711" y1="2.29289" x2="19.7071" y2="20.2929" stroke="#1D3F77" stroke-width="2"/>
</svg>
